<svg xmlns="http://www.w3.org/2000/svg" viewBox="0 0 100 100"><switch><g><path stroke="#000" stroke-linecap="round" stroke-linejoin="round" stroke-miterlimit="10" d="M75.23 5.5h-50c-4.647 0-9.73 3.154-9.73 7.801v61.785c0 4.646 5.083 9.414 9.73 9.414h6.27v10.553l8.553-8.455 9.447 8.455V84.5h25.73c4.646 0 7.27-4.768 7.27-9.414V13.301c0-4.647-2.623-7.801-7.27-7.801zm1.27 7.801V61.5h-50v-50h48.73c1.55 0 1.27.252 1.27 1.801zM75.23 78.5H49.5v-6h-18v6h-6.27c-1.549 0-3.73-1.865-3.73-3.414V67.5h55v7.586c0 1.549.28 3.414-1.27 3.414z"/><path d="M37 17.5c0-.275-.225-.5-.5-.5h-4c-.275 0-.5.225-.5.5v4c0 .275.225.5.5.5h4c.275 0 .5-.225.5-.5v-4zM37 28.5c0-.275-.225-.5-.5-.5h-4c-.275 0-.5.225-.5.5v4c0 .275.225.5.5.5h4c.275 0 .5-.225.5-.5v-4zM37 39.5c0-.275-.225-.5-.5-.5h-4c-.275 0-.5.225-.5.5v4c0 .275.225.5.5.5h4c.275 0 .5-.225.5-.5v-4zM37 50.5c0-.275-.225-.5-.5-.5h-4c-.275 0-.5.225-.5.5v4c0 .275.225.5.5.5h4c.275 0 .5-.225.5-.5v-4z"/></g></switch></svg>
