<svg xmlns="http://www.w3.org/2000/svg" viewBox="0 0 528 482"><path fill="#CD6799" d="M404.6 471l10.3-11.2c2.3 2.6 6.7 4.9 10.8 4.9 1.9 0 3.8-.6 3.8-2.3 0-1.8-1.8-2.6-8.9-4.9-6.8-2.3-13-5.9-13-14.7 0-12.5 11.2-17.2 21-17.2 6.6 0 14 2.7 19.1 7.4l-10.5 10.7c-2.3-2.8-6-4.3-8.6-4.3-2.5 0-4.1.6-4.1 2.3 0 1.5 1.5 2 5 3.1 7.2 2.3 16.9 5.5 16.9 15.9 0 12.1-10.6 17.9-20.7 17.9-8.1 0-16-3.1-21.1-7.6zM360.9 471l10.3-11.2c2.3 2.6 6.7 4.9 10.8 4.9 1.9 0 3.8-.6 3.8-2.3 0-1.8-1.8-2.6-8.9-4.9-6.8-2.3-13-5.9-13-14.7 0-12.5 11.2-17.2 21-17.2 6.6 0 14 2.7 19.1 7.4l-10.5 10.7c-2.3-2.8-6-4.3-8.6-4.3-2.5 0-4.1.6-4.1 2.3 0 1.5 1.5 2 5 3.1 7.2 2.3 16.9 5.5 16.9 15.9 0 12.1-10.6 17.9-20.7 17.9-8.1 0-16-3.1-21.1-7.6zM324.5 427h17.9l19.6 50.2h-18.3l-2.6-7.4h-15.9l-2.5 7.4h-17.9l19.7-50.2zm8.8 17.5l-4.1 12.4h8.1l-4-12.4zM262.2 471l10.3-11.2c2.3 2.6 6.7 4.9 10.8 4.9 1.9 0 3.8-.6 3.8-2.3 0-1.8-1.8-2.6-8.9-4.9-6.8-2.3-13-5.9-13-14.7 0-12.5 11.2-17.2 21-17.2 6.6 0 14 2.7 19.1 7.4l-10.5 10.7c-2.3-2.8-6-4.3-8.6-4.3-2.5 0-4.1.6-4.1 2.3 0 1.5 1.5 2 5 3.1 7.2 2.3 16.9 5.5 16.9 15.9 0 12.1-10.6 17.9-20.7 17.9-8.1 0-16-3.1-21.1-7.6z"/><path d="M312 399.7c-.6 0-1.9 1.2-1.9-7.4 0-6.6 1.3-10.9 1.3-12 0-.9.1-1.4-.6-1.4-2.1 0-5.8 3.4-6.3 3.4-.3 0-.4.1-.4-.7 0-.9.8-4.6 1.3-5.5.3-.6 4.3-1.6 8.3-1.6 4.8 0 9.1 1.3 9.1 2.7 0 1.3-1.5 4.1-1.8 4.1-.5 0-1.7-2.5-3.9-2.5-1.8 0-2.1 5.7-2.1 8.4 0 7.7 1.6 11.4 1.6 11.9 0 .7-1.1.5-1.5.5h-3.1zM291.7 400.2c-6 0-8.4-4.3-8.4-9.5 0-7.7 4.3-16.2 9.9-16.2 5.6 0 9.9 8.5 9.9 16.2 0 5.2-2.4 9.5-8.4 9.5h-3zm6.6-10.1c0-6.6-3-10.7-5-10.7s-5 4.1-5 10.7c0 3.5 1.9 4.8 5 4.8s5-1.4 5-4.8zM276.5 399.7c-2.1 0-.2-1.8-4.9-11.3-.4-.8-3-5.8-4-5.8-.7 0-.5 3.2-.5 3.8 0 8.4 1.2 11.4 1.2 13 0 .4-.6.3-.8.3h-2.8c-.7 0-1.6.6-1.6-10.6 0-14.7 1.5-14.2 2.1-14.2h2.4c1.1 0 3.4 2.4 9 12.7.1.1.2.5.5.5s.2-1.3.2-1.7c0-5.6-1.5-10.5-1.5-11.2 0-.4.7-.3 1.2-.3h2.3c.7 0 2.1-.5 2.1 14.2 0 11.2-.9 10.6-1.6 10.6h-3.3z"/><path fill="#CD6799" d="M451.6 227.8c-18.2.1-33.9 4.5-47.1 11-4.8-9.6-9.7-18.1-10.5-24.4-1-7.4-2.1-11.7-.9-20.5 1.2-8.8 6.2-21.2 6.1-22.1-.1-.9-1.1-5.4-11.6-5.5-10.5-.1-19.4 2-20.5 4.8-1.1 2.8-3.1 9-4.3 15.5-1.8 9.5-20.9 43.4-31.8 61.1-3.5-6.9-6.6-13-7.2-17.8-1-7.4-2.1-11.7-.9-20.5 1.2-8.8 6.2-21.2 6.1-22.1-.1-.9-1.1-5.4-11.6-5.5-10.5-.1-19.4 2-20.5 4.8-1.1 2.8-2.2 9.2-4.3 15.5-2.1 6.3-27.5 62.8-34.2 77.4-3.4 7.5-6.3 13.5-8.4 17.6s-.1.3-.3.7c-1.8 3.5-2.8 5.4-2.8 5.4v.1c-1.4 2.6-2.9 4.9-3.7 4.9-.5 0-1.6-6.8.2-16.2 3.8-19.6 12.8-50.2 12.8-51.2 0-.5 1.7-5.9-5.9-8.7-7.4-2.7-10 1.8-10.7 1.8-.7 0-1.1 1.6-1.1 1.6s8.2-34.4-15.7-34.4c-15 0-35.7 16.4-45.9 31.2-6.5 3.5-20.3 11.1-34.9 19.1-5.6 3.1-11.4 6.2-16.8 9.2l-1.1-1.2c-29-31-82.7-52.9-80.5-94.6.8-15.1 6.1-55 103.2-103.4 79.5-39.6 143.2-28.7 154.2-4.6 15.7 34.5-34 98.7-116.6 108-31.5 3.5-48-8.7-52.2-13.2-4.3-4.8-5-5-6.6-4.1-2.6 1.5-1 5.7 0 8.2 2.5 6.4 12.6 17.8 29.8 23.5 15.2 5 52.1 7.7 96.8-9.6 50-19.4 89.1-73.2 77.6-118.2-11.8-45.7-87.7-60.7-159.5-35.2-42.7 15.2-89 39-122.3 70.1-39.6 37.1-45.9 69.3-43.3 82.7 9.2 47.8 75.1 79 101.5 102-1.3.7-2.5 1.4-3.6 2-13.2 6.5-63.5 32.8-76 60.6-14.3 31.5 2.3 54.1 13.2 57.2 33.9 9.4 68.7-7.5 87.4-35.4 18.7-27.9 16.4-64.2 7.8-80.7l-.3-.6c3.4-2 6.9-4.1 10.4-6.1 6.7-4 13.3-7.6 19.1-10.8-3.2 8.8-5.6 19.3-6.8 34.6-1.4 17.9 5.9 41 15.5 50.1 4.2 4 9.3 4.1 12.5 4.1 11.2 0 16.3-9.3 21.9-20.3 6.9-13.5 13-29.2 13-29.2s-7.7 42.4 13.2 42.4c7.6 0 15.3-9.9 18.7-14.9v.1s.2-.3.6-1c.8-1.2 1.2-2 1.2-2v-.2c3.1-5.3 9.8-17.4 20-37.4 13.1-25.8 25.7-58.1 25.7-58.1s1.2 7.9 5 21c2.3 7.7 7.1 16.2 10.8 24.3-3 4.2-4.9 6.7-4.9 6.7l.1.1c-2.4 3.2-5.2 6.7-8 10.1-10.4 12.3-22.7 26.4-24.4 30.5-1.9 4.8-1.5 8.3 2.3 11.2 2.8 2.1 7.6 2.4 12.8 2 9.3-.6 15.9-2.9 19.1-4.3 5-1.8 10.9-4.6 16.4-8.6 10.2-7.5 16.3-18.2 15.7-32.3-.3-7.8-2.8-15.5-6-22.9.9-1.3 1.8-2.7 2.8-4 16-23.4 28.5-49.2 28.5-49.2s1.2 7.9 5 21c1.9 6.6 5.8 13.8 9.2 20.9-15.1 12.2-24.4 26.5-27.7 35.8-6 17.3-1.3 25.1 7.5 26.9 4 .8 9.6-1 13.9-2.8 5.3-1.8 11.6-4.7 17.6-9 10.2-7.5 19.9-17.9 19.4-32.1-.3-6.5-2-12.9-4.4-19 12.8-5.3 29.3-8.3 50.4-5.8 45.2 5.3 54.1 33.5 52.4 45.3-1.7 11.8-11.2 18.3-14.3 20.3-3.2 2-4.1 2.6-3.9 4.1.4 2.1 1.9 2 4.6 1.6 3.7-.6 23.7-9.6 24.6-31.4.9-27.9-25.7-58.3-72.6-58zm-348.5 117.5c-15 16.3-35.9 22.5-44.9 17.3-9.7-5.6-5.9-29.7 12.5-47 11.2-10.6 25.7-20.3 35.3-26.3 2.2-1.3 5.4-3.2 9.3-5.6.6-.4 1-.6 1-.6l2.3-1.4c6.7 24.7.2 46.4-15.5 63.6zm109.1-74.2c-5.2 12.7-16.1 45.2-22.8 43.5-5.7-1.5-9.2-26.2-1.1-50.6 4-12.2 12.7-26.9 17.8-32.6 8.2-9.1 17.2-12.1 19.4-8.4 2.7 4.8-10 40.1-13.3 48.1zm90.1 43c-2.2 1.2-4.2 1.9-5.2 1.3-.7-.4.9-1.9.9-1.9s11.3-12.1 15.7-17.7c2.6-3.2 5.6-7 8.8-11.3v1.3c.1 14.6-13.9 24.4-20.2 28.3zm69.4-15.8c-1.6-1.2-1.4-5 4-16.8 2.1-4.6 7-12.5 15.4-19.9 1 3.1 1.6 6 1.6 8.8 0 18.2-13.1 25-21 27.9z"/></svg>
