<svg xmlns="http://www.w3.org/2000/svg" viewBox="0 0 160.46 118.46"><defs><style>.a{fill:#E11E26}.c{fill:#79431B}.d{fill:#FFF}.f{fill:#DE8C4A}.g{fill:#010101}.i{fill:#D72B2A}</style></defs><path class="a" d="M102.59 0h-68.39l-34.2 59.23 34.2 59.23h68.39l34.19-59.23-34.19-59.23z"/><path fill="#F04C4A" d="M131.69 58.5l-31.11-53.88h-32.49v107.76h32.49l31.11-53.88z"/><ellipse class="c" cx="67.01" cy="72.21" rx="26.96" ry="29.43"/><path class="d" d="M73.16 102.51l-4.76-2.75a.72.72 0 0 0-.58 0l-4.75 2.75a.64.64 0 0 0-.29.5v5.51a.57.57 0 0 0 .29.5l4.76 2.75a.72.72 0 0 0 .58 0l4.75-2.75a.64.64 0 0 0 .29-.5v-5.51a.57.57 0 0 0-.29-.5zm-5.06-1.06a.4.4 0 1 1 .4-.4.4.4 0 0 1-.4.4z"/><path class="a" d="M67.48 107.96l.21.07a1.16 1.16 0 0 0 .35 0 .76.76 0 0 0 .57-.24.83.83 0 0 0 .23-.6.94.94 0 0 0-.47-.82 1.32 1.32 0 0 1-.22-.17l-.4-.23a3.17 3.17 0 0 1-.33-.25l-.35-.28a1.87 1.87 0 0 1-.49-.47 2.23 2.23 0 0 1-.29-.79v-.39a.4.4 0 0 1 0-.18v-.12a1.35 1.35 0 0 1 .16-.4 1.44 1.44 0 0 1 .32-.29l.25-.16.18-.06a3.57 3.57 0 0 1 .89-.11h.7100000000000001a1.68 1.68 0 0 1 .63.19.43.43 0 0 1 .31.36.86.86 0 0 1-.13.28s0 .14-.07.35a.31.31 0 0 1-.3.32.82.82 0 0 1-.37-.19 1.59 1.59 0 0 0-.37-.18 1.15 1.15 0 0 0-.34-.09h-.31a.4.4 0 0 0-.27.14.41.41 0 0 0-.12.28.77.77 0 0 0 .42.57 9 9 0 0 1 1.4 1.11 2.86 2.86 0 0 1 .61.87 1.72 1.72 0 0 1 .14.6 2.59 2.59 0 0 1-.17 1 1.74 1.74 0 0 1-.4.58 1.65 1.65 0 0 1-.82.42 5 5 0 0 1-.81 0h-.4a3.58 3.58 0 0 1-.64-.12h-.23a1.17 1.17 0 0 1-.39-.11.54.54 0 0 1-.09-.38.76.76 0 0 1 .07-.25l.07-.18v-.22q0-.36.24-.37a.66.66 0 0 1 .37.19 2 2 0 0 0 .65.32z"/><path fill="#EAE1DA" d="M74.12 28.69c-2-.13-3.93-.51-5.85-.51a35.29 35.29 0 0 0-6.3.6c-15.32 2.79-27.77 12-24.09 27 1.81 7.38 6.21 12.12 7.9 16.83 4.48 12.48 4 18.89 12.59 21.66a33.37 33.37 0 0 0 22.4-.73c7.83-3.13 7.56-9.12 11.39-21.67 1.41-4.6 6-12.27 6.82-19.15 1.79-14.26-14.82-23.36-24.86-24.03z"/><path class="f" d="M66.05 44.66a32.44 32.44 0 0 0-4.08-15.89c-15.32 2.79-27.77 12-24.09 27 1.81 7.38 6.21 12.12 7.9 16.83v.14c11.68-3.08 20.27-14.08 20.27-28.08zM74.12 28.69h-.09a32.43 32.43 0 0 0-4.14 16c0 14.67 9.45 26 21.94 28.48.12-.42.24-.83.38-1.27 1.41-4.6 6-12.27 6.82-19.15 1.74-14.29-14.87-23.39-24.91-24.06z"/><path class="g" d="M74.25 84.7c0 1.52-3.15 4.54-4.67 4.54s-4-3-4-4.54a2.76 2.76 0 0 1 2.76-2.76h3.2a2.76 2.76 0 0 1 2.76 2.76z"/><circle class="g" cx="52.84" cy="59.37" r="4.6"/><circle class="d" cx="52.2" cy="57.45" r="1.91"/><circle class="g" cx="85.81" cy="59.37" r="4.6"/><circle class="d" cx="85.17" cy="57.45" r="1.91"/><path class="c" d="M56.57 30.55s8.8-3.7 1.4-6.54-30.2 1.58-32.79 8.5c0 0 5 28.62 6 29.28s14.29-29.27 25.39-31.24zM79.7 30.57s-8.78-3.15-1.07-6.47 30.76-.33 33 6.44c0 0-6.65 29-7.74 29.74s-12.97-28.43-24.19-29.71z"/><path fill="#D86F6F" d="M67,92.05s-1,3,2.89,3,2.36-3,2.36-3l-2.33-1Z"/><path class="c" d="M74.15 92.59a6 6 0 0 1-2.26-.54 5.2 5.2 0 0 0-1.95-.48 3.66 3.66 0 0 0-1.23.36 4.35 4.35 0 0 1-3.64.22c-1.29-.55-3.74-3-4.16-4.3a.54.54 0 0 1 1-.32 9.64 9.64 0 0 0 3.56 3.63 3.32 3.32 0 0 0 2.82-.23 4.45 4.45 0 0 1 1.63-.43 5.71 5.71 0 0 1 2.36.55 3.92 3.92 0 0 0 2.79.33c1.64-.47 3.07-3.23 3.61-4.27a.54.54 0 1 1 1 .49c-1 2-2.42 4.28-4.27 4.81a4.43 4.43 0 0 1-1.26.18z"/></svg>
